<svg width="229.9" height="90.5" viewBox="0 0 229.9 90.5" xmlns="http://www.w3.org/2000/svg">
<path fill="#F0EEF8" transform="translate(0.00,67.56) scale(0.041992,-0.041992)" d="M1302 430H486Q497 332 539 284Q598 215 693 215Q753 215 807 245Q840 264 878 312L1279 275Q1187 115 1057.0 45.5Q927 -24 684 -24Q473 -24 352.0 35.5Q231 95 151.5 224.5Q72 354 72 529Q72 778 231.5 932.0Q391 1086 672 1086Q900 1086 1032.0 1017.0Q1164 948 1233.0 817.0Q1302 686 1302 476ZM888 625Q876 743 824.5 794.0Q773 845 689 845Q592 845 534 768Q497 720 487 625Z"/><path fill="#F0EEF8" transform="translate(54.36,67.56) scale(0.041992,-0.041992)" d="M494 718 105 759Q127 861 168.5 919.5Q210 978 288 1021Q344 1052 442.0 1069.0Q540 1086 654 1086Q837 1086 948.0 1065.5Q1059 1045 1133 980Q1185 935 1215.0 852.5Q1245 770 1245 695V226Q1245 151 1254.5 108.5Q1264 66 1296 0H914Q891 41 884.0 62.5Q877 84 870 130Q790 53 711 20Q603 -24 460 -24Q270 -24 171.5 64.0Q73 152 73 281Q73 402 144 480Q215 558 406 596Q635 642 703.0 660.5Q771 679 847 709Q847 784 816.0 814.0Q785 844 707 844Q607 844 557 812Q518 787 494 718ZM847 504Q763 474 672 451Q548 418 515 386Q481 353 481 311Q481 263 514.5 232.5Q548 202 613 202Q681 202 739.5 235.0Q798 268 822.5 315.5Q847 363 847 439Z"/><path fill="#F0EEF8" transform="translate(108.72,67.56) scale(0.041992,-0.041992)" d="M614 1466V1062H838V765H614V388Q614 320 627 298Q647 264 697 264Q742 264 823 290L853 9Q702 -24 571 -24Q419 -24 347.0 15.0Q275 54 240.5 133.5Q206 213 206 391V765H56V1062H206V1257Z"/><path fill="#C8F135" transform="translate(143.89,67.56) scale(0.041992,-0.041992)" d="M138 1466H545V1189H138ZM138 1062H545V0H138Z"/><path fill="#C8F135" transform="translate(169.53,67.56) scale(0.041992,-0.041992)" d="M1241 -404H830V103Q770 40 692.5 8.0Q615 -24 520 -24Q326 -24 199.0 115.5Q72 255 72 515Q72 689 130.0 822.0Q188 955 291.0 1020.5Q394 1086 518 1086Q625 1086 715 1039Q781 1004 860 905V1062H1241ZM833 528Q833 665 781.5 726.0Q730 787 651 787Q578 787 528.5 726.5Q479 666 479 524Q479 397 527.5 338.5Q576 280 646 280Q728 280 780.5 341.0Q833 402 833 528Z"/>
</svg>